<svg width="512" height="512" viewBox="0 0 512 512" xmlns="http://www.w3.org/2000/svg">
  <defs>
    <linearGradient id="bg" x1="0" y1="0" x2="0" y2="1">
      <stop offset="0%" stop-color="#0B1020"/>
      <stop offset="100%" stop-color="#1F2937"/>
    </linearGradient>
  </defs>
  <rect width="512" height="512" fill="url(#bg)"/>

  <!-- Card grid backdrop -->
  <g opacity="0.9">
    <rect x="86" y="86" width="100" height="120" rx="8" fill="#374151"/>
    <rect x="206" y="86" width="100" height="120" rx="8" fill="#374151"/>
    <rect x="326" y="86" width="100" height="120" rx="8" fill="#374151"/>

    <rect x="86" y="226" width="100" height="120" rx="8" fill="#374151"/>
    <rect x="206" y="226" width="100" height="120" rx="8" fill="#2563EB"/>
    <rect x="326" y="226" width="100" height="120" rx="8" fill="#2563EB"/>

    <rect x="86" y="366" width="100" height="60" rx="8" fill="#374151"/>
    <rect x="206" y="366" width="100" height="60" rx="8" fill="#374151"/>
    <rect x="326" y="366" width="100" height="60" rx="8" fill="#374151"/>
  </g>

  <!-- Matching icons on flipped pair -->
  <g fill="#FFFFFF" font-size="56" font-weight="bold">
    <text x="256" y="300" text-anchor="middle">★</text>
    <text x="376" y="300" text-anchor="middle">★</text>
  </g>

  <!-- Title strip -->
  <rect x="0" y="420" width="512" height="92" fill="rgba(0,0,0,0.6)"/>
  <text x="256" y="470" text-anchor="middle" font-size="28" font-weight="bold" fill="#93C5FD">MEMORY MATCH</text>
</svg>
