<svg xmlns="http://www.w3.org/2000/svg" viewBox="0 0 512 512" width="512" height="512">
  <defs>
    <linearGradient id="memBg" x1="0%" y1="0%" x2="0%" y2="100%">
      <stop offset="0%" stop-color="#0B1020"/>
      <stop offset="100%" stop-color="#1E293B"/>
    </linearGradient>
    <radialGradient id="memSpot" cx="50%" cy="40%" r="55%">
      <stop offset="0%" stop-color="#2563EB" stop-opacity="0.35"/>
      <stop offset="100%" stop-color="#2563EB" stop-opacity="0"/>
    </radialGradient>
    <filter id="cardShadow" x="-40%" y="-40%" width="180%" height="180%">
      <feDropShadow dx="0" dy="6" stdDeviation="6" flood-color="#000000" flood-opacity="0.55"/>
    </filter>
    <linearGradient id="cardFace" x1="0%" y1="0%" x2="0%" y2="100%">
      <stop offset="0%" stop-color="#60A5FA"/>
      <stop offset="100%" stop-color="#2563EB"/>
    </linearGradient>
  </defs>

  <rect width="512" height="512" fill="url(#memBg)"/>
  <circle cx="256" cy="210" r="220" fill="url(#memSpot)"/>

  <g filter="url(#cardShadow)">
    <rect x="72" y="76" width="92" height="116" rx="10" fill="#374151"/>
    <rect x="180" y="76" width="92" height="116" rx="10" fill="#374151"/>
    <rect x="288" y="76" width="92" height="116" rx="10" fill="#374151"/>
    <rect x="396" y="76" width="92" height="116" rx="10" fill="#374151"/>
    <rect x="72" y="210" width="92" height="116" rx="10" fill="#374151"/>
    <rect x="180" y="210" width="92" height="116" rx="10" fill="url(#cardFace)"/>
    <rect x="288" y="210" width="92" height="116" rx="10" fill="url(#cardFace)"/>
    <rect x="396" y="210" width="92" height="116" rx="10" fill="#374151"/>
  </g>

  <g fill="#FFFFFF">
    <g transform="translate(226 268)">
      <polygon points="0,-26 22,0 0,26 -22,0"/>
      <circle cx="0" cy="0" r="5" fill="#93C5FD"/>
    </g>
    <g transform="translate(334 268)">
      <polygon points="0,-26 22,0 0,26 -22,0"/>
      <circle cx="0" cy="0" r="5" fill="#93C5FD"/>
    </g>
  </g>

  <g opacity="0.9">
    <circle cx="256" cy="190" r="3" fill="#34D399"/>
    <circle cx="286" cy="184" r="2.5" fill="#FBBF24"/>
    <circle cx="230" cy="182" r="2.5" fill="#A78BFA"/>
    <circle cx="304" cy="210" r="2" fill="#60A5FA"/>
    <circle cx="208" cy="208" r="2" fill="#F87171"/>
  </g>

  <text x="18" y="30" font-family="Arial" font-weight="bold" font-size="18" fill="#ffffff">MOVES 12</text>
  <text x="18" y="50" font-family="Arial" font-size="12" fill="#94A3B8">STREAK x3</text>
  <text x="494" y="30" text-anchor="end" font-family="Arial" font-weight="bold" font-size="18" fill="#93C5FD">TIME 24.6s</text>

  <g>
    <rect x="128" y="350" width="88" height="38" rx="8" fill="#0F172A" stroke="#334155" stroke-width="2"/>
    <rect x="212" y="350" width="88" height="38" rx="8" fill="#0F172A" stroke="#334155" stroke-width="2"/>
    <rect x="296" y="350" width="88" height="38" rx="8" fill="#0F172A" stroke="#334155" stroke-width="2"/>
    <text x="172" y="374" text-anchor="middle" font-family="Arial" font-weight="bold" font-size="12" fill="#FBBF24">HINT</text>
    <text x="256" y="374" text-anchor="middle" font-family="Arial" font-weight="bold" font-size="12" fill="#A78BFA">SHUFFLE</text>
    <text x="340" y="374" text-anchor="middle" font-family="Arial" font-weight="bold" font-size="12" fill="#38BDF8">REVEAL</text>
  </g>

  <rect x="0" y="420" width="512" height="92" fill="rgba(0,0,0,0.75)"/>
  <rect x="0" y="420" width="512" height="3" fill="#93C5FD"/>
  <text x="256" y="462" text-anchor="middle" font-family="Arial" font-weight="bold" font-size="30" fill="#93C5FD" letter-spacing="2">MEMORY MATCH</text>
  <text x="256" y="492" text-anchor="middle" font-family="Arial" font-weight="bold" font-size="14" fill="#94A3B8">HINT • SHUFFLE • REVEAL • STREAK UP</text>
</svg>
