<svg width="512" height="512" viewBox="0 0 512 512" xmlns="http://www.w3.org/2000/svg">
  <defs>
    <linearGradient id="bg" x1="0%" y1="0%" x2="0%" y2="100%">
      <stop offset="0%" stop-color="#1e3a8a"/>
      <stop offset="100%" stop-color="#111827"/>
    </linearGradient>
  </defs>
  <rect width="512" height="512" fill="url(#bg)"/>

  <!-- Grid -->
  <g stroke="#374151" stroke-width="2" fill="#1f2937">
    <rect x="96" y="96" width="64" height="64"/>
    <rect x="160" y="96" width="64" height="64"/>
    <rect x="224" y="96" width="64" height="64"/>
    <rect x="288" y="96" width="64" height="64"/>
    <rect x="352" y="96" width="64" height="64"/>

    <rect x="96" y="160" width="64" height="64"/>
    <rect x="160" y="160" width="64" height="64"/>
    <rect x="224" y="160" width="64" height="64"/>
    <rect x="288" y="160" width="64" height="64"/>
    <rect x="352" y="160" width="64" height="64"/>

    <rect x="96" y="224" width="64" height="64"/>
    <rect x="160" y="224" width="64" height="64"/>
    <rect x="224" y="224" width="64" height="64"/>
    <rect x="288" y="224" width="64" height="64"/>
    <rect x="352" y="224" width="64" height="64"/>

    <rect x="96" y="288" width="64" height="64"/>
    <rect x="160" y="288" width="64" height="64"/>
    <rect x="224" y="288" width="64" height="64"/>
    <rect x="288" y="288" width="64" height="64"/>
    <rect x="352" y="288" width="64" height="64"/>

    <rect x="96" y="352" width="64" height="64"/>
    <rect x="160" y="352" width="64" height="64"/>
    <rect x="224" y="352" width="64" height="64"/>
    <rect x="288" y="352" width="64" height="64"/>
    <rect x="352" y="352" width="64" height="64"/>
  </g>
  <!-- Flag -->
  <polygon points="120,364 148,364 148,336" fill="#facc15" stroke="#92400e" stroke-width="4"/>
  <!-- Mine -->
  <circle cx="256" cy="192" r="20" fill="#dc2626" stroke="#7f1d1d" stroke-width="4"/>
  <!-- Number -->
  <text x="352" y="176" text-anchor="middle" font-size="32" fill="#ffffff" font-weight="bold">3</text>
  <rect x="0" y="420" width="512" height="92" fill="rgba(0,0,0,0.8)"/>
  <text x="256" y="465" text-anchor="middle" font-size="32" font-weight="bold" fill="#facc15">MINESWEEPER</text>
</svg>
